<svg width="46" height="46" viewBox="0 0 46 46" fill="none" xmlns="http://www.w3.org/2000/svg">
<path d="M0 23V46H46V0H0V23ZM37.0702 21.1677C38.2394 21.459 39.1287 21.9784 39.9472 22.8256C40.3707 23.2779 40.9994 24.1021 41.0492 24.3014C41.0646 24.3589 39.0636 25.7006 37.8523 26.4538C37.8082 26.4826 37.6318 26.2928 37.4363 26.0015C36.8422 25.139 36.2231 24.7672 35.2743 24.702C33.879 24.6062 32.982 25.3364 32.9897 26.5554C32.977 26.8552 33.0444 27.1529 33.1852 27.4179C33.4918 28.0523 34.063 28.4337 35.8493 29.2062C39.1441 30.6245 40.5528 31.5579 41.4287 32.8862C42.4062 34.3678 42.6267 36.7348 41.9616 38.4943C41.2332 40.4072 39.422 41.7067 36.8728 42.136C36.0851 42.2759 34.2163 42.2548 33.3692 42.1015C31.5215 41.7718 29.7697 40.8595 28.6887 39.6616C28.2651 39.1958 27.439 37.9749 27.4908 37.8887C27.6236 37.7871 27.7646 37.6967 27.9124 37.6184C28.1194 37.5015 28.8918 37.0549 29.6221 36.6313L30.9446 35.8647L31.2225 36.2748C31.6097 36.8652 32.4549 37.6759 32.9667 37.9462C34.4348 38.7205 36.4492 38.6112 37.4421 37.72C37.6417 37.5518 37.7998 37.3397 37.9038 37.1003C38.0079 36.8609 38.0552 36.6007 38.042 36.34C38.042 35.8072 37.9749 35.5733 37.697 35.1708C37.3405 34.661 36.6102 34.2317 34.5364 33.3308C32.1636 32.3092 31.142 31.6748 30.2067 30.6667C29.6229 30.0013 29.1918 29.2163 28.9436 28.3667C28.7692 27.7169 28.7251 26.0877 28.8631 25.4322C29.3518 23.138 31.0826 21.5414 33.58 21.0661C34.3908 20.9127 36.2748 20.9702 37.0702 21.1677V21.1677ZM26.2717 23.0882L26.2871 24.9723H20.2975V41.9846H16.0617V24.9723H10.0778V23.1246C10.0778 22.1011 10.0989 21.2462 10.1277 21.2271C10.1507 21.1964 13.7943 21.1811 18.2103 21.1888L26.2507 21.2118L26.2717 23.0882Z" fill="#404040"/>
</svg>
