<?xml version="1.0" encoding="UTF-8" standalone="no"?>
<svg
   xmlns:dc="http://purl.org/dc/elements/1.1/"
   xmlns:cc="http://creativecommons.org/ns#"
   xmlns:rdf="http://www.w3.org/1999/02/22-rdf-syntax-ns#"
   xmlns:svg="http://www.w3.org/2000/svg"
   xmlns="http://www.w3.org/2000/svg"
   xmlns:sodipodi="http://sodipodi.sourceforge.net/DTD/sodipodi-0.dtd"
   xmlns:inkscape="http://www.inkscape.org/namespaces/inkscape"
   id="svg4"
   version="1.1"
   viewBox="0 0 200 200"
   role="img"
   class="svg-inline--fa fa-js fa-w-14"
   data-icon="js"
   data-prefix="fab"
   focusable="false"
   aria-hidden="true"
   sodipodi:docname="web-brands.svg"
   width="200"
   height="200"
   inkscape:version="0.92.2 5c3e80d, 2017-08-06">
  <sodipodi:namedview
     pagecolor="#ffffff"
     bordercolor="#666666"
     borderopacity="1"
     objecttolerance="10"
     gridtolerance="10"
     guidetolerance="10"
     inkscape:pageopacity="0"
     inkscape:pageshadow="2"
     inkscape:window-width="772"
     inkscape:window-height="480"
     id="namedview8"
     showgrid="false"
     inkscape:zoom="0.4609375"
     inkscape:cx="214.22456"
     inkscape:cy="208.66825"
     inkscape:window-x="668"
     inkscape:window-y="0"
     inkscape:window-maximized="0"
     inkscape:current-layer="svg4" />
  <metadata
     id="metadata10">
    <rdf:RDF>
      <cc:Work
         rdf:about="">
        <dc:format>image/svg+xml</dc:format>
        <dc:type
           rdf:resource="http://purl.org/dc/dcmitype/StillImage" />
        <dc:title />
      </cc:Work>
    </rdf:RDF>
  </metadata>
  <defs
     id="defs8" />
  <path
     style="fill:#404040;stroke-width:1"
     id="path2"
     d="M 0,0 V 200 H 200 V 0 Z m 108.83928,155.98215 c 0,19.46427 -11.42856,28.3482 -28.08035,28.3482 -15.04464,0 -23.75,-7.76785 -28.21428,-17.18749 l 15.31249,-9.24107 c 2.94643,5.22321 5.62501,9.64285 12.09822,9.64285 6.16071,0 10.08929,-2.41071 10.08929,-11.83036 V 91.83036 h 18.79463 z m 44.46429,28.3482 c -17.45535,0 -28.74999,-8.30357 -34.24107,-19.19642 l 15.3125,-8.83929 c 4.01786,6.5625 9.28572,11.42857 18.52678,11.42857 7.76786,0 12.76786,-3.88392 12.76786,-9.28571 0,-6.42857 -5.08929,-8.70536 -13.70535,-12.5 l -4.6875,-2.00893 c -13.57143,-5.75892 -22.54465,-13.03571 -22.54465,-28.34821 0,-14.10714 10.75893,-24.82143 27.5,-24.82143 11.96429,0 20.53572,4.15179 26.69643,15.04464 l -14.64285,9.375 c -3.21429,-5.75893 -6.69644,-8.03571 -12.09822,-8.03571 -5.49107,0 -8.97321,3.48214 -8.97321,8.03571 0,5.62501 3.48214,7.90178 11.5625,11.42857 l 4.68749,2.00894 c 15.98215,6.83035 24.95536,13.83928 24.95536,29.55356 0,16.87501 -13.30357,26.16071 -31.11607,26.16071 z"
     inkscape:connector-curvature="0" />
  <path
     style="fill:#ffffff;stroke-width:1"
     d="m 3.76875,7.20964 7.05253,79.98259 31.7465,10.54849 31.74649,-10.54849 7.05254,-79.98259 z m 63.27071,16.16627 -0.96998,9.5583 -23.29962,9.96246 -0.0606,0.0202 H 65.24099 L 62.65439,72.54154 42.8103,78.34119 22.84497,72.44051 21.55167,57.50692 h 9.88162 l 0.64665,7.7396 10.62932,2.68764 11.05369,-3.11201 0.74768,-12.44802 -33.60562,-0.10104 v -0.0202 l -0.0404,0.0202 -0.72747,-9.35622 22.65297,-9.43706 1.31351,-0.54561 H 19.2682 l -1.17206,-9.5583 z"
     id="path4659"
     inkscape:connector-curvature="0" />
  <path
     style="fill:#ffffff;fill-opacity:1;stroke-width:1"
     d="m 128.36803,6.87005 6.21455,70.47891 27.88529,9.2951 28.06335,-9.2951 6.21454,-70.47891 z m 54.88025,22.77477 h -32.72871 l 0.73007,8.79651 h 31.26857 l -2.42171,26.42513 -17.43275,4.80781 v 0.0534 h -0.19588 l -17.57521,-4.86123 -1.06841,-13.49747 h 8.49379 l 0.62324,6.78435 9.52659,2.58197 9.56219,-2.58197 1.0684,-11.07576 H 143.37908 L 141.09982,21.151 h 42.93195 z"
     id="path4670"
     inkscape:connector-curvature="0" />
</svg>
