<svg width="13" height="16" viewBox="0 0 13 16" fill="none" xmlns="http://www.w3.org/2000/svg">
<g clip-path="url(#clip0)">
<path d="M10.9688 10H10.1562C10.0485 10 9.94517 10.0527 9.86899 10.1464C9.7928 10.2402 9.75 10.3674 9.75 10.5V14H1.625V4H5.28125C5.38899 4 5.49233 3.94732 5.56851 3.85355C5.6447 3.75979 5.6875 3.63261 5.6875 3.5V2.5C5.6875 2.36739 5.6447 2.24021 5.56851 2.14645C5.49233 2.05268 5.38899 2 5.28125 2H1.21875C0.895517 2 0.585524 2.15804 0.356964 2.43934C0.128404 2.72064 0 3.10218 0 3.5L0 14.5C0 14.8978 0.128404 15.2794 0.356964 15.5607C0.585524 15.842 0.895517 16 1.21875 16H10.1562C10.4795 16 10.7895 15.842 11.018 15.5607C11.2466 15.2794 11.375 14.8978 11.375 14.5V10.5C11.375 10.3674 11.3322 10.2402 11.256 10.1464C11.1798 10.0527 11.0765 10 10.9688 10ZM12.3906 0H9.14062C8.59803 0 8.32686 0.809687 8.70898 1.28125L9.61619 2.39781L3.42773 10.0116C3.37092 10.0812 3.32585 10.164 3.29509 10.2552C3.26434 10.3464 3.2485 10.4441 3.2485 10.5428C3.2485 10.6415 3.26434 10.7393 3.29509 10.8304C3.32585 10.9216 3.37092 11.0044 3.42773 11.0741L4.00334 11.7812C4.05995 11.8512 4.12722 11.9066 4.20129 11.9445C4.27536 11.9824 4.35478 12.0018 4.43498 12.0018C4.51518 12.0018 4.5946 11.9824 4.66867 11.9445C4.74274 11.9066 4.81001 11.8512 4.86662 11.7812L11.052 4.16625L11.959 5.28125C12.3398 5.75 13 5.42188 13 4.75V0.75C13 0.551088 12.9358 0.360322 12.8215 0.21967C12.7072 0.0790176 12.5522 0 12.3906 0V0Z" fill="white"/>
</g>
<defs>
<clipPath id="clip0">
<rect width="13" height="16" fill="white"/>
</clipPath>
</defs>
</svg>
