<svg width="30" height="30" viewBox="0 0 30 30" fill="none" xmlns="http://www.w3.org/2000/svg">
<g clip-path="url(#clip0)">
<path d="M24.9994 0H5.00063C3.67559 0.00395682 2.40596 0.532077 1.46902 1.46902C0.532077 2.40596 0.00395682 3.67559 0 5.00063L0 24.9994C0 27.75 2.25 30 5.00063 30H24.9994C27.7519 30 30 27.75 30 24.9994V5.00063C29.9965 3.67544 29.4686 2.40553 28.5315 1.46848C27.5945 0.531427 26.3246 0.00346455 24.9994 0V0ZM7.5 7.5H22.5C22.7681 7.5 23.0269 7.55812 23.2669 7.665L15 17.3081L6.73313 7.665C6.97393 7.55555 7.23549 7.49928 7.5 7.5ZM5.625 20.625V9.375L5.62875 9.25688L11.1263 15.6712L5.68875 21.1088C5.6458 20.9511 5.62436 20.7884 5.625 20.625ZM22.5 22.5H7.5C7.335 22.5 7.17188 22.4775 7.01625 22.4362L12.3525 17.1L15.0019 20.19L17.6512 17.1L22.9875 22.4362C22.8299 22.4792 22.6671 22.5006 22.5037 22.5H22.5ZM24.375 20.625C24.375 20.79 24.3525 20.9531 24.3112 21.1088L18.8738 15.6712L24.3713 9.25688L24.375 9.375V20.625Z" fill="white"/>
</g>
<defs>
<clipPath id="clip0">
<rect width="30" height="30" fill="white"/>
</clipPath>
</defs>
</svg>
