<svg width="20" height="20" viewBox="0 0 20 20" fill="none" xmlns="http://www.w3.org/2000/svg">
<path d="M13.18 10.309C12.462 10.309 11.88 11.116 11.88 12.108C11.88 13.102 12.462 13.909 13.18 13.909C13.898 13.909 14.48 13.102 14.48 12.108C14.479 11.116 13.898 10.309 13.18 10.309ZM17.706 5.62595C17.855 5.26095 17.861 3.18695 17.071 1.19995C17.071 1.19995 15.26 1.39895 12.52 3.27995C11.945 3.11995 10.972 3.04195 10.001 3.04195C9.028 3.04195 8.056 3.11995 7.481 3.27995C4.74 1.39895 2.929 1.19995 2.929 1.19995C2.14 3.18695 2.148 5.26095 2.295 5.62595C1.367 6.63395 0.800003 7.84495 0.800003 9.49695C0.800003 16.683 6.763 16.798 8.267 16.798L10.001 16.8L11.733 16.798C13.239 16.798 19.2 16.683 19.2 9.49695C19.2 7.84495 18.634 6.63395 17.706 5.62595ZM10.028 15.915H9.972C6.201 15.915 3.263 15.466 3.263 11.8C3.263 10.921 3.573 10.107 4.31 9.43095C5.537 8.30395 7.615 8.89995 9.972 8.89995H10.028C12.385 8.89995 14.464 8.30395 15.692 9.43095C16.427 10.107 16.737 10.921 16.737 11.8C16.737 15.466 13.8 15.915 10.028 15.915ZM6.821 10.309C6.103 10.309 5.521 11.116 5.521 12.108C5.521 13.102 6.103 13.909 6.821 13.909C7.54 13.909 8.122 13.102 8.122 12.108C8.122 11.116 7.54 10.309 6.821 10.309Z" fill="white"/>
</svg>
